<?xml version="1.0" encoding="utf-8"?>
<!-- Generator: Adobe Illustrator 26.2.1, SVG Export Plug-In . SVG Version: 6.00 Build 0)  -->
<svg version="1.1" xmlns="http://www.w3.org/2000/svg" xmlns:xlink="http://www.w3.org/1999/xlink" x="0px" y="0px"
	 viewBox="0 0 774 799" style="enable-background:new 0 0 774 799;" xml:space="preserve">
<g id="Layer_1">
	<path d="M259.63,245.5c0,35.02,0.15,70.03-0.03,105.05c-0.21,41.33-26.36,70.01-67.72,72.16c-15.58,0.81-31.92-0.83-46.98-4.87
		c-22.96-6.15-36.87-23.32-41.13-46.4c-1.85-10.02-6.03-11.27-14.34-11.11c-17.27,0.33-34.57,0.41-51.83-0.27
		c-18.44-0.73-32.92-11.22-34.83-28.69c-6.2-56.58-3.66-112.19,31.11-160.75c33.48-46.75,81.18-68.47,137.24-73.32
		c15.81-1.37,31.83-1.1,47.72-0.56c27.08,0.92,40.64,15.25,40.75,42.34C259.74,174.56,259.63,210.03,259.63,245.5z M212.54,122.62
		c-11.29,0.38-21.58,11.37-20.99,22.42c0.61,11.58,11.14,20.97,22.83,20.35c11.17-0.59,20.03-10.17,19.92-21.53
		C234.18,132.05,224.12,122.23,212.54,122.62z M62.63,307.42c-0.24-11.67-10.47-21.4-22.03-20.97
		c-10.66,0.4-20.55,10.55-20.72,21.26c-0.18,11.42,9.97,21.46,21.69,21.46C53.39,329.18,62.87,319.38,62.63,307.42z"/>
	<path d="M133,449.02c45.88,11.25,88.35,10.33,127.04-15.78c12.8,13.4,25.04,27.28,38.5,39.86c7.52,7.03,16.67,12.63,25.77,17.63
		c78.81,43.3,157.82,86.22,236.66,129.47c37.77,20.72,47.49,51.58,29.16,90.75c-7.68,16.41-17.9,29.44-35.6,37.27
		c-30.7,13.58-59.81,30.89-90.83,43.59c-14.81,6.06-32.79,8.28-48.79,6.69c-28.5-2.83-47.17-23.49-49.53-53.17
		c-1.68-21.12,0.64-42.56,0.94-63.86c0.06-4.28,0.53-9.75-1.75-12.68c-20.38-26.17-20.68-53.19-3.87-82.36
		c-9.74-4.55-19.03-9-28.41-13.26c-33.09-15.02-66.22-29.95-99.3-44.97C197.37,512.03,153.91,477.89,133,449.02z M398.01,690.6
		c0,15.12-0.74,29.57,0.16,43.92c1.66,26.52,22.32,39.72,46.59,28.58c35.41-16.24,70.43-33.43,104.86-51.65
		c22.46-11.89,23.66-37.56,1.91-50.05c-22.56-12.95-47.08-22.49-71.2-33.74C468.14,675.26,445.06,691.11,398.01,690.6z M438.99,625
		c-0.25-14.3-12.12-25.54-26.47-25.09c-13.52,0.43-24.87,12.02-24.93,25.47c-0.07,13.99,11.87,25.83,26,25.79
		C427.79,651.14,439.24,639.34,438.99,625z"/>
	<path d="M291.79,164.48c0-16.44,0-31.3,0-47.72c33.09-0.93,67.95-5.32,98.78,17.11c38.55,28.05,77.37,55.72,115.83,83.9
		c47.62,34.89,94.99,70.13,142.45,105.23c3.61,2.67,7.12,5.48,11.69,9c-9.62,15.27-16.77,32.46-29.05,44.33
		c-10.69,10.34-26.5,17.83-41.25,21.03c-35.02,7.59-68.33,0.46-99.2-18.6c-24.69-15.25-49.55-30.44-75.43-43.47
		c-38.16-19.21-77.81-31.18-121.66-10.41c0-23.38-0.34-45.04,0.41-66.66c0.1-2.83,5.31-7.01,8.85-7.96
		c21.15-5.68,42.31-5.66,62.58,3.66c14.83,6.82,29.15,14.77,43.99,21.57c14.95,6.85,25.04,4.5,33.95-6.76
		c9.6-12.12,12.04-28.05,0.05-36.91c-31.89-23.57-65.76-44.49-99.32-65.72c-4.39-2.78-11.53-1.46-17.41-1.56
		C315.8,164.34,304.55,164.48,291.79,164.48z"/>
	<path d="M490.87,166.89c24.82-13.09,47.41-27.01,71.56-37.25c33.64-14.26,51.8-39.86,61.61-73.3c6.63-22.61,19.95-39.86,41.8-49.19
		c28.2-12.04,55.51-9.47,79.55,9.91c25.51,20.56,34.62,48.51,25.49,79.48c-15.67,53.12-33.38,105.65-51.13,158.13
		c-6.7,19.82-21.44,33.61-40.65,41.82c-3.73,1.59-10.19,1.48-13.26-0.76C607.85,253.43,550.19,210.7,490.87,166.89z M697.29,108.51
		c17.54,0.11,32.56-14.28,32.87-31.49c0.31-17.74-15.26-33.48-32.83-33.18c-17.36,0.29-31.89,15.1-31.89,32.49
		C665.44,94.13,679.56,108.4,697.29,108.51z"/>
	<path d="M330.23,734.46c-14.79-5.95-27.91-5.2-40.6,4.09c-2.35,1.72-8.86-0.14-12.12-2.32c-3.54-2.37-5.33-7.22-8.24-10.69
		c-6.63-7.89-7.68-13.97,2.21-21.05c12.38-8.86,15.49-22.36,10.77-36.57c-4.72-14.22-15.62-23.39-30.46-23.19
		c-14.43,0.19-14.07-7.83-13.37-17.34c0.69-9.34-4.31-20.38,13.71-21.59c11.02-0.74,21.42-10.7,34.82-18
		c7.77,3.53,19.69,8.93,31.97,14.51c-5.41,27.22-1.25,52,12.56,75.38c2.44,4.12,1.56,10.52,1.34,15.83
		C332.25,706.62,331.19,719.7,330.23,734.46z"/>
	<path d="M538.33,571c-62.64-34.5-127.28-70.1-193.85-106.76c6.67-2.42,12.03-4.03,17.09-6.28c10.59-4.7,16.67-3.55,21.08,9.24
		c4.77,13.83,16.71,21.01,32.14,20.39c14.75-0.6,26.03-7.96,29.9-21.61c4.63-16.35,13.86-10.02,22.89-7.07
		c8.68,2.83,19.34,3.3,14.22,18.44c-4.97,14.69,1,28.73,13.23,37.02c12.53,8.5,25.96,9.2,38.09,0.12c9.18-6.86,14.32-4.49,19.4,4.13
		c2.52,4.28,6.93,7.82,8.24,12.34c1.06,3.68-0.09,9.05-2.24,12.4C552.66,552.52,545.75,561,538.33,571z"/>
</g>
<g id="Layer_2">
</g>
</svg>
