<?xml version="1.0" encoding="utf-8"?>
<!-- Generator: Adobe Illustrator 26.2.1, SVG Export Plug-In . SVG Version: 6.00 Build 0)  -->
<svg version="1.1" xmlns="http://www.w3.org/2000/svg" xmlns:xlink="http://www.w3.org/1999/xlink" x="0px" y="0px"
	 viewBox="0 0 1440 799" style="enable-background:new 0 0 1440 799;" xml:space="preserve">
<style type="text/css">
	.st0{fill:#13BABC;}
</style>
<g id="Layer_1">
</g>
<g id="Layer_2">
	<g>
		<polygon class="st0" points="477.19,400 477.19,799 518.37,799 518.37,400 518.37,1 477.19,1 		"/>
		<polygon class="st0" points="907.43,400 907.43,799 948.61,799 948.61,400 948.61,1 907.43,1 		"/>
		<polygon class="st0" points="538.25,400 538.25,686.83 890.39,735.1 890.39,400 890.39,64.9 538.25,113.17 		"/>
		<polygon class="st0" points="312.48,400 312.48,539.15 380.64,539.15 380.64,400 380.64,260.85 312.48,260.85 		"/>
		<polygon class="st0" points="407.62,400 407.62,554.77 461.57,627.19 461.57,400 461.57,172.81 407.62,245.23 		"/>
		<polygon class="st0" points="975.59,400 975.59,735.1 1056.52,567.55 1056.52,400 1056.52,232.45 975.59,64.9 		"/>
		<polygon class="st0" points="1080.66,400 1080.66,522.11 1148.82,522.11 1148.82,400 1148.82,277.89 1080.66,277.89 		"/>
		<polygon class="st0" points="1168.7,400 1168.7,473.84 1222.65,473.84 1222.65,400 1222.65,326.16 1168.7,326.16 		"/>
		<polygon class="st0" points="1236.85,363.08 1236.85,400 1236.85,436.92 1439.9,436.92 1439.9,400 1439.9,363.08 		"/>
		<polygon class="st0" points="221.6,400 221.6,469.58 294.02,469.58 294.02,400 294.02,330.42 221.6,330.42 		"/>
		<polygon class="st0" points="0.1,400 0.1,436.92 203.15,436.92 203.15,400 203.15,363.08 0.1,363.08 		"/>
	</g>
</g>
</svg>
