<?xml version="1.0" encoding="utf-8"?>
<!-- Generator: Adobe Illustrator 26.2.1, SVG Export Plug-In . SVG Version: 6.00 Build 0)  -->
<svg version="1.1" xmlns="http://www.w3.org/2000/svg" xmlns:xlink="http://www.w3.org/1999/xlink" x="0px" y="0px"
	 viewBox="0 0 822 474" style="enable-background:new 0 0 822 474;" xml:space="preserve">
<style type="text/css">
	.st0{opacity:0.1;}
	.st1{fill:none;stroke:#13BABC;stroke-width:7;stroke-miterlimit:10;}
	.st2{fill:#13BABC;}
</style>
<g id="Layer_1">
</g>
<g id="Layer_2">
	<path class="st0" d="M165.74,141.54c-91.68,0-166,74.32-166,166s74.32,166,166,166s166-74.32,166-166S257.42,141.54,165.74,141.54z
		 M165.74,440.54c-73.45,0-133-59.55-133-133s59.55-133,133-133s133,59.55,133,133S239.2,440.54,165.74,440.54z"/>
	<path class="st0" d="M655.74,141.54c-91.68,0-166,74.32-166,166s74.32,166,166,166s166-74.32,166-166S747.42,141.54,655.74,141.54z
		 M655.74,440.54c-73.45,0-133-59.55-133-133s59.55-133,133-133s133,59.55,133,133S729.2,440.54,655.74,440.54z"/>
	<polygon class="st1" points="165.74,307.54 367.74,333.54 311.74,139.54 	"/>
	<polygon class="st1" points="311.74,139.54 553.74,71.54 561.74,96.54 367.74,333.54 	"/>
	<path class="st0" d="M652.43,297.18l-39.45-101.23v0c-0.53-44.17-0.74-44.91-3.74-51.91s-10-7-7,4s0.71,22.18,0.71,22.18l0,0
		l-24.03-61.67l-13.04,5.08c-7.37,2.6-6.63,4.4-3.63,6.4c3,2,8.76,6.77,8.76,6.77l71.41,183.23c0,0-7.17,9,2.83,10c10,1,21-7,22-13
		C668.24,301.04,652.43,297.18,652.43,297.18z"/>
	<path class="st0" d="M331.17,46.04c0,0-91.93-1-101.93,0s-11,12-5,12s17,9,21,11s8,1,10,3c2,2,4,3,8,3s14.5-3.5,18.5-3.5
		s7.2,5.15,7.2,5.15l15.9,53.7l6.71-1.99l-15.9-53.7c-3.59-11.34,8.59-12.66,8.59-12.66l28.71-0.9
		C355.67,46.24,331.17,46.04,331.17,46.04z"/>
	<path class="st0" d="M600.24,15.04c-1-14-8-15-17-15s-13,13-13,13c-3-2-10-3-14,2s-2,9-2,9s-3,2-6,2c-6-1-12.5,1.5-17.5,7.5
		s6.05,7.84,6.05,7.84s-3.05,2.16-3.05,6.16c0,4,6.09,3.1,6.09,3.1l0.11,0.34l4.66,14.17l15.2-5l-4.64-14.13c-1.08-4,0.08-6,0.08-6
		l23-12C578.24,28.04,601.24,29.04,600.24,15.04z"/>
	<circle class="st2" cx="368" cy="333" r="8"/>
</g>
<g id="Layer_3">
</g>
<g id="Layer_4">
</g>
<g id="Layer_5">
</g>
</svg>
