<?xml version="1.0" encoding="utf-8"?>
<!-- Generator: Adobe Illustrator 26.2.1, SVG Export Plug-In . SVG Version: 6.00 Build 0)  -->
<svg version="1.1" xmlns="http://www.w3.org/2000/svg" xmlns:xlink="http://www.w3.org/1999/xlink" x="0px" y="0px"
	 viewBox="0 0 791 440" style="enable-background:new 0 0 791 440;" xml:space="preserve">
<style type="text/css">
	.st0{opacity:0.1;}
	.st1{fill:none;stroke:#13BABC;stroke-width:7;stroke-miterlimit:10;}
	.st2{fill:#13BABC;}
</style>
<g id="Layer_1">
	<path class="st0" d="M166,108C74.32,108,0,182.32,0,274s74.32,166,166,166s166-74.32,166-166S257.68,108,166,108z M166,407
		c-73.45,0-133-59.55-133-133s59.55-133,133-133s133,59.55,133,133S239.45,407,166,407z"/>
	<path class="st0" d="M625,108c-91.68,0-166,74.32-166,166s74.32,166,166,166s166-74.32,166-166S716.68,108,625,108z M625,407
		c-73.45,0-133-59.55-133-133s59.55-133,133-133s133,59.55,133,133S698.45,407,625,407z"/>
	<polygon class="st1" points="166,274 359,300 305,115 	"/>
	<polygon class="st1" points="305,115 533.5,67.5 545.5,97.5 359,300 	"/>
	<path class="st0" d="M324.43,20.5c0,0-91.93-1-101.93,0s-11,12-5,12s17,9,21,11s8,1,10,3s4,3,8,3S271,46,275,46s7.2,5.15,7.2,5.15
		l15.9,53.7l6.71-1.99l-15.9-53.7c-3.59-11.34,8.59-12.66,8.59-12.66l28.71-0.9C348.93,20.7,324.43,20.5,324.43,20.5z"/>
	<circle class="st2" cx="359" cy="300" r="8"/>
	<polygon class="st0" points="543.93,110.6 555.17,105.93 625,274 621,276 	"/>
	<path class="st0" d="M525.5,63.5c0,0-4.41-15.21-12.47-15.38c0,0-3.64-1.13-1.85-3.33c0,0,0.34-0.91,3.15-0.76l-0.67-6.48
		c0,0-10.58-2.98-2.04-7.89s10.47-5.1,14.89-1.54l66.88-4.91c0,0,17.8-2.85,18.15-18.97c0,0,10.02-10.08,17.22,1.24
		c7.2,11.32-5.73,12.66,0.1,30.15c5.83,17.49-4.39,25.59-4.77,31.66c-0.38,6.07,5.21,11.52,5.21,11.52s-5.76,2.61-11.49-13.89
		c-2.02-9.84,5.01-19.62,5.01-19.62s1.06-9.16-1.23-11.94l-22.95,11.42c0,0,1.13,40.1-40.41,56.46l-7.51-14.3
		c0,0,37.04-20.92,24.32-46.75l-43.97,2.54l6.72,16.4L525.5,63.5z"/>
</g>
<g id="Layer_2">
</g>
<g id="Layer_3">
</g>
<g id="Layer_4">
</g>
<g id="Layer_5">
</g>
</svg>
