<?xml version="1.0" encoding="utf-8"?>
<!-- Generator: Adobe Illustrator 26.2.1, SVG Export Plug-In . SVG Version: 6.00 Build 0)  -->
<svg version="1.1" xmlns="http://www.w3.org/2000/svg" xmlns:xlink="http://www.w3.org/1999/xlink" x="0px" y="0px"
	 viewBox="0 0 869 496" style="enable-background:new 0 0 869 496;" xml:space="preserve">
<style type="text/css">
	.st0{opacity:0.1;}
	.st1{fill:none;stroke:#13BABC;stroke-width:7;stroke-miterlimit:10;}
	.st2{fill:#13BABC;}
</style>
<g id="Layer_1">
</g>
<g id="Layer_2">
</g>
<g id="Layer_3">
</g>
<g id="Layer_4">
	<path class="st0" d="M536.87,329.99c0,91.68,74.32,166,166,166s166-74.32,166-166s-74.32-166-166-166S536.87,238.32,536.87,329.99z
		 M569.87,329.99c0-73.45,59.55-133,133-133s133,59.55,133,133s-59.55,133-133,133S569.87,403.45,569.87,329.99z"/>
	<path class="st0" d="M-0.13,329.99c0,91.68,74.32,166,166,166s166-74.32,166-166s-74.32-166-166-166S-0.13,238.32-0.13,329.99z
		 M32.87,329.99c0-73.45,59.55-133,133-133s133,59.55,133,133s-59.55,133-133,133S32.87,403.45,32.87,329.99z"/>
	<polygon class="st1" points="699.87,326.99 500.87,355.99 564.87,133.99 	"/>
	<polygon class="st1" points="564.87,133.99 276.87,71.99 259.87,118.99 500.87,355.99 	"/>
	<path class="st0" d="M169.18,319.64l39.45-101.23v0c0.53-44.17,0.74-44.91,3.74-51.91s10-7,7,4s-0.71,22.18-0.71,22.18l0,0
		l24.03-61.67l13.04,5.08c7.37,2.6,6.63,4.4,3.63,6.4c-3,2-8.76,6.77-8.76,6.77L179.2,332.5c0,0,7.17,9-2.83,10c-10,1-21-7-22-13
		C153.37,323.49,169.18,319.64,169.18,319.64z"/>
	<path class="st0" d="M545.45,37.49c0,0,91.93-1,101.93,0s11,12,5,12s-17,9-21,11s-8,1-10,3s-4,3-8,3s-14.5-3.5-18.5-3.5
		s-7.2,5.15-7.2,5.15l-15.9,53.7l-6.71-1.99l15.9-53.7c3.59-11.34-8.59-12.66-8.59-12.66l-28.71-0.9
		C520.95,37.7,545.45,37.49,545.45,37.49z"/>
	<path class="st0" d="M230.37,15.49c1-14,8-15,17-15s13,13,13,13c3-2,10-3,14,2s2,9,2,9s3,2,6,2c6-1,12.5,1.5,17.5,7.5
		s-6.05,7.84-6.05,7.84s3.05,2.16,3.05,6.16c0,4-6.09,3.1-6.09,3.1l-0.11,0.34l-4.66,14.17l-15.2-5l4.64-14.13c1.08-4-0.08-6-0.08-6
		l-23-12C252.37,28.49,229.37,29.49,230.37,15.49z"/>
	<circle class="st2" cx="501" cy="356" r="8"/>
</g>
<g id="Layer_5">
</g>
</svg>
