<svg xmlns="http://www.w3.org/2000/svg" viewBox="0 0 869 495"><defs><style>.cls-1{opacity:0.1;}.cls-2{opacity:0.25;}.cls-3{fill:none;stroke:#13babc;stroke-miterlimit:10;stroke-width:7px;}</style></defs><g id="Layer_3" data-name="Layer 3"><path class="cls-1" d="M352.29,344.47s-7.43,33.17,10.61,28.27,48.25-12.78,54-33.48,1.56-27.71-22.3-29.75S352.29,344.47,352.29,344.47Z"/><circle class="cls-2" cx="392.21" cy="337.4" r="15.99"/><circle class="cls-2" cx="367.9" cy="347.44" r="8.8"/><path class="cls-1" d="M166.13,163a166,166,0,1,0,166,166A166,166,0,0,0,166.13,163Zm0,299a133,133,0,1,1,133-133A133,133,0,0,1,166.13,462Z"/><path class="cls-1" d="M703.13,163a166,166,0,1,0,166,166A166,166,0,0,0,703.13,163Zm0,299a133,133,0,1,1,133-133A133,133,0,0,1,703.13,462Z"/><path class="cls-3" d="M357.5,316.5l-3,3a62.67,62.67,0,0,0-15.22,31.29L169.13,326l135-193,53,183.92S384.47,288.5,420,304L609.13,118l-17-47-288,62"/><path class="cls-1" d="M699.82,318.64,660.36,217.41h0c-.52-44.18-.73-44.92-3.73-51.92s-10-7-7,4,.71,22.19.71,22.19h0L626.3,130l-13,5.08c-7.37,2.6-6.63,4.4-3.63,6.4s8.76,6.78,8.76,6.78L689.8,331.5s-7.17,9,2.83,10,21-7,22-13S699.82,318.64,699.82,318.64Z"/><path class="cls-1" d="M323.55,36.49s-91.92-1-101.92,0-11,12-5,12,17,9,21,11,8,1,10,3,4,3,8,3,14.5-3.5,18.5-3.5,7.19,5.15,7.19,5.15l15.9,53.7,6.71-2L288,65.15c-3.6-11.34,8.59-12.66,8.59-12.66l28.71-.89C348.05,36.7,323.55,36.49,323.55,36.49Z"/><path class="cls-1" d="M638.63,14.49c-1-14-8-15-17-15s-13,13-13,13c-3-2-10-3-14,2s-2,9-2,9a12.68,12.68,0,0,1-6,2c-6-1-12.5,1.5-17.5,7.5s6,7.84,6,7.84a8,8,0,0,0-3,6.16c0,4,6.09,3.11,6.09,3.11l.11.34L583,64.62l15.2-5-4.64-14.13c-1.08-4,.08-6,.08-6l23-12S639.63,28.49,638.63,14.49Z"/></g></svg>