<svg xmlns="http://www.w3.org/2000/svg" viewBox="0 0 869 495"><defs><style>.cls-1{opacity:0.1;}.cls-2{fill:none;stroke:#13babc;stroke-miterlimit:10;stroke-width:7px;}.cls-3{fill:#13babc;}.cls-4{opacity:0.4;}</style></defs><g id="Layer_2" data-name="Layer 2"><path class="cls-1" d="M166.13,163a166,166,0,1,0,166,166A166,166,0,0,0,166.13,163Zm0,299a133,133,0,1,1,133-133A133,133,0,0,1,166.13,462Z"/><path class="cls-1" d="M703.13,163a166,166,0,1,0,166,166A166,166,0,0,0,703.13,163Zm0,299a133,133,0,1,1,133-133A133,133,0,0,1,703.13,462Z"/><polygon class="cls-2" points="169.13 326 368.13 355 304.13 133 169.13 326"/><polygon class="cls-2" points="304.13 133 592.13 71 609.13 118 368.13 355 304.13 133"/><path class="cls-1" d="M699.82,318.64,660.36,217.41h0c-.52-44.18-.73-44.92-3.73-51.92s-10-7-7,4,.71,22.19.71,22.19h0L626.3,130l-13,5.08c-7.37,2.6-6.63,4.4-3.63,6.4s8.76,6.78,8.76,6.78L689.8,331.5s-7.17,9,2.83,10,21-7,22-13S699.82,318.64,699.82,318.64Z"/><path class="cls-1" d="M323.55,36.49s-91.92-1-101.92,0-11,12-5,12,17,9,21,11,8,1,10,3,4,3,8,3,14.5-3.5,18.5-3.5,7.19,5.15,7.19,5.15l15.9,53.7,6.71-2L288,65.15c-3.6-11.34,8.59-12.66,8.59-12.66l28.71-.89C348.05,36.7,323.55,36.49,323.55,36.49Z"/><path class="cls-1" d="M638.63,14.49c-1-14-8-15-17-15s-13,13-13,13c-3-2-10-3-14,2s-2,9-2,9a12.68,12.68,0,0,1-6,2c-6-1-12.5,1.5-17.5,7.5s6,7.84,6,7.84a8,8,0,0,0-3,6.16c0,4,6.09,3.11,6.09,3.11l.11.34L583,64.62l15.2-5-4.64-14.13c-1.08-4,.08-6,.08-6l23-12S639.63,28.49,638.63,14.49Z"/><circle class="cls-3" cx="368" cy="355" r="8"/><circle class="cls-4" cx="703" cy="329" r="43"/></g></svg>