<svg xmlns="http://www.w3.org/2000/svg" viewBox="0 0 869 495"><defs><style>.cls-1{opacity:0.4;}.cls-2{opacity:0.1;}.cls-3{fill:none;stroke:#13babc;stroke-miterlimit:10;stroke-width:7px;}.cls-4{fill:#13babc;}</style></defs><g id="Layer_4" data-name="Layer 4"><circle class="cls-1" cx="169.5" cy="326.5" r="43"/><path class="cls-2" d="M166.16,163a166,166,0,1,0,166,166A166,166,0,0,0,166.16,163Zm0,299a133,133,0,1,1,133-133A133,133,0,0,1,166.16,462Z"/><path class="cls-2" d="M703.16,163a166,166,0,1,0,166,166A166,166,0,0,0,703.16,163Zm0,299a133,133,0,1,1,133-133A133,133,0,0,1,703.16,462Z"/><polygon class="cls-3" points="169.16 326.03 368.16 355.03 304.16 133.03 169.16 326.03"/><polygon class="cls-3" points="304.16 133.03 592.16 71.03 609.16 118.03 368.16 355.03 304.16 133.03"/><path class="cls-2" d="M699.85,318.67,660.4,217.44h0c-.53-44.17-.74-44.91-3.74-51.91s-10-7-7,4,.71,22.18.71,22.18h0l-24-61.67-13,5.08c-7.37,2.6-6.63,4.41-3.63,6.41s8.76,6.77,8.76,6.77l71.41,183.23s-7.17,9,2.83,10,21-7,22-13S699.85,318.67,699.85,318.67Z"/><path class="cls-2" d="M323.59,36.53s-91.93-1-101.93,0-11,12-5,12,17,9,21,11,8,1,10,3,4,3,8,3,14.5-3.5,18.5-3.5,7.2,5.14,7.2,5.14l15.89,53.7,6.71-2-15.89-53.7c-3.6-11.34,8.59-12.65,8.59-12.65l28.71-.9C348.09,36.73,323.59,36.53,323.59,36.53Z"/><path class="cls-2" d="M638.66,14.53c-1-14-8-15-17-15s-13,13-13,13c-3-2-10-3-14,2s-2,9-2,9a12.68,12.68,0,0,1-6,2c-6-1-12.5,1.5-17.5,7.5s6.05,7.84,6.05,7.84A8,8,0,0,0,572.16,47c0,4,6.09,3.1,6.09,3.1l.12.35L583,64.65l15.2-5-4.65-14.12c-1.08-4,.08-6,.08-6l23-12S639.66,28.53,638.66,14.53Z"/><circle class="cls-4" cx="368.03" cy="355.03" r="8"/></g></svg>